<svg width="30" height="30" viewBox="0 0 30 30" fill="none" xmlns="http://www.w3.org/2000/svg">
<rect x="2.52332" y="2.52126" width="24.1701" height="24.1701" rx="12.085" fill="#386629"/>
<path d="M9.83954 7.71709C9.83954 7.71709 9.96409 8.67302 10.7044 9.67757C11.4447 10.6821 12.5905 12.0482 13.2965 13.0682C13.8608 13.8835 16.4005 17.4125 16.4005 17.4125" stroke="white" stroke-width="0.302126" stroke-miterlimit="10"/>
<path d="M9.31213 8.08212C9.31213 8.08212 9.27637 9.14902 10.0295 10.1447C10.7826 11.1404 11.879 12.2071 12.8664 13.3991C13.499 14.1624 16.1672 17.5739 16.1672 17.5739" stroke="white" stroke-width="0.302126" stroke-miterlimit="10"/>
<path d="M8.90759 8.48083C8.90759 8.48083 8.78206 9.48997 9.48926 10.5186C10.1012 11.4079 11.1804 12.5458 12.4429 13.678C13.1817 14.3394 15.9933 17.6943 15.9933 17.6943" stroke="white" stroke-width="0.302126" stroke-miterlimit="10"/>
<path d="M8.38739 8.84078C8.38739 8.84078 8.17849 9.90762 8.8889 10.9341C9.70428 12.1122 10.7403 12.8503 12.0029 13.9824C12.7416 14.6438 15.825 17.8107 15.825 17.8107" stroke="white" stroke-width="0.302126" stroke-miterlimit="10"/>
<path d="M7.97475 9.24502C7.97475 9.24502 7.63015 10.2871 8.34056 11.3135C9.15594 12.4916 10.1932 13.0996 11.6149 14.2509C12.3857 14.8747 15.6462 17.9344 15.6462 17.9344" stroke="white" stroke-width="0.302126" stroke-miterlimit="10"/>
<path d="M9.83951 7.71717C9.83951 7.71717 10.6903 8.17047 11.3697 9.21719C12.0491 10.2639 12.924 11.8175 13.6299 12.8375C14.1942 13.6528 16.5984 17.2756 16.5984 17.2756" stroke="white" stroke-width="0.302126" stroke-miterlimit="10"/>
<path d="M10.3678 7.35139C10.3678 7.35139 11.3789 7.69373 12.0454 8.74932C12.712 9.80491 13.3242 11.2067 14.092 12.5507C14.5835 13.4117 16.778 17.1511 16.778 17.1511" stroke="white" stroke-width="0.302126" stroke-miterlimit="10"/>
<path d="M10.8826 7.11374C10.8826 7.11374 11.8713 7.35173 12.5849 8.37594C13.2016 9.26187 13.8864 10.6728 14.5013 12.2532C14.8601 13.1776 17.0096 16.9908 17.0096 16.9908" stroke="white" stroke-width="0.302126" stroke-miterlimit="10"/>
<path d="M11.4029 6.7537C11.4029 6.7537 12.4749 6.93399 13.1853 7.96042C14.0007 9.13853 14.3266 10.3682 14.9414 11.9486C15.3002 12.873 17.178 16.8743 17.178 16.8743" stroke="white" stroke-width="0.302126" stroke-miterlimit="10"/>
<path d="M11.9273 6.50932C11.9273 6.50932 13.0239 6.55388 13.7344 7.58031C14.5497 8.75842 14.7533 9.94334 15.3301 11.6795C15.6424 12.6206 17.3575 16.7499 17.3575 16.7499" stroke="white" stroke-width="0.302126" stroke-miterlimit="10"/>
<path d="M12.422 6.16713C12.422 6.16713 13.6543 6.23646 14.3648 7.2629C15.1801 8.44101 15.1679 9.65663 15.7447 11.3927C16.0123 12.1974 17.1288 15.4568 17.4465 16.3835C17.5016 16.5436 17.6087 16.6795 17.7508 16.7699L18.0165 16.9397C18.1227 17.0075 18.2125 17.0996 18.2769 17.2081L20.1942 20.4272C20.3145 20.63 20.2559 20.8914 20.0602 21.0232L18.4727 22.0852C18.2765 22.2162 18.0114 22.1706 17.8711 21.9816L15.6769 19.0409C15.5849 18.9182 15.5301 18.7722 15.5184 18.62L15.4985 18.3703C15.4824 18.1689 15.3852 17.9822 15.2298 17.8536C14.422 17.1866 11.8491 15.0622 11.2018 14.5381C9.7788 13.3865 8.63677 12.9697 7.82139 11.7916C7.11099 10.7652 7.4802 9.58739 7.4802 9.58739" stroke="white" stroke-width="0.302126" stroke-miterlimit="10"/>
<path d="M14.6523 17.4391L17.2439 15.6455L17.444 16.2773L15.1731 17.849L14.6523 17.4391Z" fill="white"/>
</svg>
